<?xml version="1.0" standalone="no"?>
<!DOCTYPE svg PUBLIC "-//W3C//DTD SVG 20010904//EN"
 "http://www.w3.org/TR/2001/REC-SVG-20010904/DTD/svg10.dtd">
<svg version="1.0" xmlns="http://www.w3.org/2000/svg"
 width="1280.000000pt" height="834.000000pt" viewBox="0 0 1280.000000 834.000000"
 preserveAspectRatio="xMidYMid meet">
<metadata>
Created by potrace 1.15, written by Peter Selinger 2001-2017
</metadata>
<g transform="translate(0.000000,834.000000) scale(0.100000,-0.100000)"
fill="#000000" stroke="none">
<path d="M5125 8333 c-393 -17 -843 -84 -1245 -187 -223 -57 -314 -87 -419
-137 -221 -107 -259 -235 -171 -579 68 -271 66 -315 -37 -615 -124 -362 -258
-492 -715 -690 -202 -88 -297 -145 -383 -230 -97 -95 -120 -145 -120 -256 0
-78 3 -91 37 -160 20 -40 69 -114 109 -164 39 -49 98 -130 130 -179 73 -109
76 -139 25 -230 -34 -59 -133 -191 -263 -349 -52 -63 -70 -78 -105 -88 -64
-17 -199 -6 -293 25 -44 14 -93 26 -110 26 -67 0 -195 -85 -195 -130 0 -28 9
-44 91 -168 85 -127 89 -154 28 -205 -70 -60 -138 -69 -301 -37 -128 25 -164
25 -176 3 -5 -10 -12 -70 -14 -133 -8 -177 -36 -212 -176 -224 -125 -11 -196
-65 -197 -149 0 -23 3 -51 7 -62 7 -19 4 -20 -60 -20 -65 0 -71 -2 -124 -42
-30 -24 -88 -58 -129 -77 -91 -42 -124 -76 -139 -140 -13 -60 -30 -92 -95
-186 -121 -173 -118 -192 47 -276 80 -41 108 -63 195 -152 118 -121 128 -125
200 -66 61 51 95 74 110 74 6 0 15 -21 19 -46 8 -56 55 -128 112 -171 57 -43
98 -44 137 -3 16 17 37 30 48 30 58 0 92 -56 112 -189 22 -149 60 -211 130
-211 23 0 41 12 85 59 76 81 93 89 125 56 25 -24 26 -27 23 -164 l-3 -139 30
-43 c35 -49 94 -84 129 -75 13 3 56 33 97 67 78 66 121 89 167 89 73 0 226
-71 306 -141 l41 -37 0 -218 c0 -213 1 -221 27 -300 47 -137 125 -234 189
-234 14 0 47 14 72 31 72 47 118 115 167 242 38 99 113 139 220 118 81 -16
154 -56 224 -122 71 -66 115 -142 141 -239 41 -155 152 -313 252 -360 91 -43
209 -10 401 113 40 26 74 47 77 47 3 0 5 -72 5 -161 0 -195 15 -273 69 -356
51 -78 142 -160 188 -169 95 -18 214 61 468 307 187 181 280 259 438 363 237
156 440 247 594 266 236 29 1320 341 1761 506 396 150 721 312 1137 569 272
168 407 266 525 381 105 102 332 292 467 390 424 310 890 482 1461 538 238 24
474 28 856 17 l360 -10 172 114 c175 116 293 215 321 268 20 39 11 81 -34 171
-77 154 -182 279 -293 351 -109 71 -242 123 -550 215 -175 52 -306 106 -330
135 -40 48 126 215 321 323 97 53 154 103 200 175 59 91 73 151 73 302 -1 144
-16 215 -81 380 -152 387 -600 906 -882 1021 -65 27 -157 32 -199 10 -59 -31
-94 -89 -112 -186 -32 -174 -42 -210 -72 -254 -106 -161 -354 -131 -544 66
-115 118 -169 234 -209 440 -46 244 -92 344 -212 459 -79 77 -167 136 -325
219 -355 185 -830 317 -1951 541 -1046 209 -1761 282 -2462 252z m905 -159
c521 -35 993 -96 1157 -150 89 -29 187 -51 719 -164 516 -109 727 -158 937
-216 585 -162 887 -332 1001 -566 23 -47 45 -115 61 -193 57 -273 142 -450
285 -593 218 -218 512 -240 701 -52 68 68 105 141 120 240 18 117 20 120 79
120 107 0 297 -87 387 -176 43 -44 55 -68 29 -58 -8 3 -35 -3 -60 -14 -54 -25
-103 -88 -146 -190 -29 -68 -31 -92 -10 -92 8 0 167 187 203 240 10 15 17 19
17 10 0 -21 -42 -109 -82 -172 -55 -85 -108 -184 -118 -218 -7 -24 -6 -32 6
-37 20 -8 42 15 139 144 85 114 167 190 173 159 4 -18 -34 -91 -150 -287 -88
-150 -109 -203 -87 -225 25 -24 48 -6 86 70 60 120 201 314 245 337 24 13 54
-11 74 -58 32 -75 10 -123 -128 -279 -138 -157 -168 -207 -133 -220 33 -13
139 87 260 244 39 50 73 92 76 92 13 0 119 -239 140 -314 31 -114 25 -239 -16
-322 -38 -78 -138 -176 -245 -238 -104 -61 -193 -144 -256 -239 -26 -40 -61
-87 -77 -104 -27 -29 -37 -33 -83 -33 -53 0 -169 22 -211 40 -32 13 -29 35 17
125 44 84 48 118 14 123 -15 2 -34 -12 -65 -49 -72 -85 -126 -139 -138 -139
-6 0 -16 10 -22 23 -21 45 66 218 141 280 26 22 24 70 -4 75 -25 5 -75 -45
-157 -160 -73 -101 -142 -172 -162 -165 -7 2 -11 23 -10 52 2 65 48 152 140
267 96 119 110 145 90 165 -21 22 -48 10 -106 -48 -101 -100 -206 -270 -218
-354 -4 -33 -10 -45 -22 -45 -22 0 -110 56 -117 74 -7 19 2 34 150 275 130
211 145 254 67 192 -93 -74 -171 -175 -249 -326 -45 -86 -96 -150 -112 -140
-17 11 -22 74 -10 142 6 38 36 129 66 204 57 143 69 213 37 207 -27 -5 -65
-69 -150 -253 -87 -188 -128 -258 -146 -252 -29 9 -40 59 -30 127 10 63 32
123 137 374 25 59 46 119 46 132 0 22 -2 23 -20 14 -65 -35 -176 -241 -234
-433 -42 -138 -51 -157 -73 -157 -31 0 -103 50 -109 76 -15 60 78 344 167 509
44 80 48 118 13 123 -71 10 -264 -405 -264 -569 0 -62 -17 -84 -53 -70 -70 27
-75 175 -14 361 19 58 71 182 114 275 87 185 102 223 96 242 -5 15 -39 0 -61
-26 -67 -81 -211 -350 -249 -466 -11 -33 -23 -90 -27 -127 -7 -71 -26 -135
-50 -170 -15 -21 -16 -21 -31 15 -46 111 20 400 161 698 80 169 100 244 69
256 -27 10 -64 -40 -129 -171 -106 -216 -206 -522 -206 -630 0 -63 -15 -119
-36 -137 -14 -11 -19 -10 -36 11 -18 22 -20 34 -14 103 15 183 84 443 176 661
85 205 98 266 55 266 -51 0 -215 -402 -280 -685 -31 -138 -70 -273 -85 -295
-19 -28 -30 11 -30 109 0 166 23 289 135 706 45 170 46 246 2 197 -61 -67
-199 -592 -217 -822 -7 -92 -13 -127 -26 -141 -23 -26 -40 -24 -61 8 -48 72 6
385 146 863 58 196 64 220 53 220 -75 0 -277 -613 -298 -900 -7 -97 -20 -160
-34 -160 -28 0 -58 105 -70 243 -24 281 54 653 175 843 19 29 44 72 55 95 20
38 20 43 6 58 -15 15 -20 14 -53 -4 -132 -71 -232 -380 -263 -810 -14 -195
-28 -301 -46 -345 l-15 -35 -19 25 c-30 40 -60 128 -72 212 -12 87 -3 246 34
543 22 182 20 238 -6 202 -19 -25 -71 -209 -101 -352 -39 -189 -47 -301 -33
-437 6 -65 9 -121 5 -124 -12 -12 -97 47 -122 84 -40 62 -59 152 -58 287 1
183 37 384 128 716 49 175 46 197 -12 111 -45 -66 -88 -180 -133 -358 -59
-230 -82 -406 -78 -599 3 -154 2 -160 -17 -160 -30 0 -63 76 -76 175 -16 115
-6 299 26 500 33 206 37 313 13 318 -11 2 -22 -8 -32 -26 -36 -70 -95 -363
-116 -582 -9 -87 -8 -140 1 -218 14 -122 10 -132 -51 -113 -52 16 -68 47 -82
164 -15 130 -4 426 21 567 24 132 26 203 8 218 -42 35 -89 -101 -127 -372 -20
-139 -25 -277 -17 -476 2 -53 1 -55 -24 -58 -37 -4 -64 33 -86 121 -16 64 -18
120 -18 533 0 378 -2 464 -14 478 -47 56 -66 -92 -81 -634 -11 -344 -15 -410
-30 -410 -16 0 -60 132 -81 245 -16 80 -19 410 -6 578 7 89 6 107 -6 107 -18
0 -64 -207 -79 -359 -15 -145 1 -367 35 -498 27 -105 24 -113 -38 -113 -51 0
-80 27 -101 96 -21 70 -36 281 -30 409 22 420 27 537 21 556 -11 34 -24 9 -41
-77 -35 -181 -46 -321 -49 -613 -3 -284 -4 -294 -24 -315 -20 -19 -23 -20 -48
-6 -41 23 -70 73 -82 143 -19 109 -24 325 -12 493 15 202 31 306 71 464 17 68
32 149 33 180 2 49 0 55 -18 55 -24 0 -78 -95 -95 -165 -24 -105 -41 -348 -50
-704 -5 -216 -14 -397 -20 -418 -19 -66 -73 -69 -103 -6 -40 85 -56 230 -67
633 -5 176 -12 330 -16 343 -12 43 -27 22 -56 -78 -9 -32 -13 -124 -13 -320 1
-239 4 -291 23 -399 30 -167 30 -167 -13 -175 -53 -10 -86 10 -117 74 -43 86
-57 161 -70 354 -17 276 10 671 57 830 19 64 19 86 -1 86 -33 0 -72 -58 -88
-130 -27 -116 -46 -323 -52 -560 -7 -255 5 -444 36 -541 24 -77 25 -105 4
-113 -20 -8 -88 -8 -135 0 l-36 6 -7 92 c-3 50 -17 280 -31 511 -36 627 -34
605 -52 605 -14 0 -15 -46 -9 -427 7 -431 -2 -710 -24 -768 l-11 -30 -28 31
c-70 78 -121 444 -121 879 0 285 -11 505 -25 505 -12 0 -45 -285 -67 -583 -15
-196 -3 -341 47 -584 48 -234 46 -258 -14 -233 -47 19 -90 119 -110 255 -5 39
-12 88 -16 110 -3 22 -10 178 -15 347 -8 292 -19 388 -41 388 -5 0 -18 -17
-27 -37 -15 -33 -17 -74 -16 -303 1 -265 18 -495 50 -660 20 -109 19 -150 -5
-150 -24 0 -62 48 -95 120 -49 107 -76 248 -106 546 -20 202 -24 230 -41 297
-11 40 -32 49 -49 18 -23 -43 -6 -392 29 -601 11 -63 41 -185 71 -280 27 -89
26 -110 -4 -110 -109 0 -224 328 -327 938 -23 135 -37 192 -46 192 -16 0 -16
-3 2 -235 28 -353 52 -497 116 -688 27 -81 49 -156 49 -167 0 -24 -34 -43 -60
-35 -63 20 -126 193 -159 440 -17 123 -61 703 -61 800 0 15 -6 25 -14 25 -11
0 -15 -48 -21 -257 -9 -304 -1 -574 20 -696 8 -48 31 -129 50 -180 19 -50 35
-99 35 -108 0 -31 -111 -35 -149 -5 -49 39 -94 244 -166 770 -20 143 -41 268
-47 279 -20 37 -28 -4 -28 -143 0 -193 39 -503 96 -754 13 -60 24 -121 24
-136 0 -34 -25 -46 -55 -26 -95 63 -159 374 -200 971 -21 314 -23 335 -42 335
-13 0 -15 -41 -10 -367 5 -423 14 -510 82 -793 25 -102 45 -189 45 -193 0 -18
-41 -4 -57 21 -68 98 -140 336 -218 721 -49 239 -59 275 -78 268 -53 -18 75
-723 172 -950 12 -27 21 -53 21 -58 0 -17 -47 -9 -81 14 -73 49 -128 167 -208
447 -53 184 -69 225 -91 225 -39 0 -13 -165 66 -424 32 -101 47 -170 50 -226
l5 -80 -34 37 c-59 66 -168 309 -228 512 -17 59 -43 175 -58 259 -14 83 -31
151 -36 150 -14 -3 -27 -155 -20 -233 13 -144 61 -320 146 -532 23 -57 50
-127 60 -155 17 -50 17 -53 1 -53 -27 0 -78 73 -137 195 -79 163 -122 288
-175 500 -62 248 -60 243 -72 220 -14 -23 -3 -162 22 -286 27 -131 67 -257
139 -435 66 -164 73 -194 41 -194 -80 0 -183 179 -270 470 -38 125 -55 157
-76 139 -41 -34 13 -233 150 -551 l16 -38 -59 0 c-53 0 -59 2 -54 19 8 33
-144 380 -181 410 -25 21 -36 -1 -24 -53 19 -87 104 -297 140 -348 l19 -28
-69 0 -70 0 -12 47 c-12 49 -115 333 -132 367 -7 12 -13 15 -20 8 -23 -23 52
-353 87 -382 31 -25 14 -31 -26 -8 -28 15 -60 49 -95 99 -30 42 -61 82 -69 89
-27 23 -29 -18 -5 -94 12 -39 25 -78 27 -86 3 -8 -36 27 -85 78 -49 50 -95 92
-101 92 -15 0 -14 -44 4 -110 8 -30 13 -55 11 -57 -1 -2 -28 19 -59 46 -77 68
-118 97 -144 105 -19 6 -16 -2 23 -59 42 -64 52 -85 37 -85 -3 0 -36 32 -73
72 -74 80 -94 84 -106 21 -9 -52 -10 -53 -44 -40 -25 10 -33 9 -40 -3 -24 -39
44 -115 134 -149 234 -87 1060 -111 1811 -52 462 37 805 46 1665 46 762 0 829
-1 882 -18 32 -10 120 -22 195 -27 160 -12 237 -22 422 -56 263 -47 626 -136
711 -173 l25 -11 -25 3 c-14 3 -104 20 -200 40 -712 145 -1492 205 -2515 194
-534 -6 -735 -15 -1200 -54 -164 -13 -323 -17 -730 -18 -546 0 -673 7 -846 46
-48 11 -111 19 -140 17 -46 -3 -54 -6 -54 -23 0 -67 219 -115 635 -137 226
-12 313 -10 1025 22 697 31 2518 38 2850 10 300 -25 806 -124 1400 -275 523
-133 823 -225 1180 -365 560 -219 1386 -470 1955 -596 174 -38 380 -58 380
-36 0 30 -78 53 -435 128 -397 83 -1399 408 -1961 634 -116 47 -183 82 -129
67 11 -3 67 -18 125 -32 164 -41 265 -68 715 -197 231 -66 605 -169 830 -229
721 -193 913 -253 1088 -341 53 -26 115 -65 137 -84 68 -62 55 -99 -79 -227
-103 -97 -256 -203 -309 -213 -55 -11 -294 3 -552 32 -129 14 -305 28 -390 29
-85 2 -156 8 -158 13 -5 16 81 50 166 66 45 9 155 20 244 26 191 13 215 17
200 32 -15 15 -130 25 -592 48 -581 29 -806 44 -1076 74 -131 15 -184 11 -192
-12 -9 -29 142 -64 478 -112 118 -17 220 -32 225 -35 18 -7 -375 5 -515 16
-98 7 -145 16 -173 29 -37 20 -37 20 -90 -3 -49 -21 -64 -22 -254 -19 -164 2
-216 0 -270 -14 -119 -29 -152 -58 -96 -83 52 -24 313 -32 808 -25 493 7 824
-2 685 -17 -36 -4 -207 -12 -380 -18 -339 -12 -483 -21 -825 -52 -654 -59
-1318 -153 -1382 -195 -42 -27 -22 -44 51 -44 41 0 240 24 606 74 359 49 695
79 1050 95 129 6 268 13 308 15 41 3 72 3 70 0 -3 -2 -101 -37 -219 -78 -562
-195 -930 -349 -1604 -673 -573 -276 -967 -442 -1475 -621 -693 -244 -970
-314 -1250 -315 -203 -1 -245 8 -685 142 -93 29 -244 70 -333 92 -192 46 -291
83 -381 144 -84 55 -186 159 -253 255 -67 97 -199 227 -279 275 -175 104 -276
264 -429 682 -28 78 -107 156 -295 292 -310 224 -455 370 -455 456 0 45 32
137 100 289 87 192 93 277 39 476 -46 168 -112 303 -220 446 -85 113 -108 163
-109 232 0 136 87 220 315 302 119 43 352 155 445 215 217 138 340 290 424
523 80 223 94 524 40 817 -9 44 -18 112 -21 152 -5 65 -3 76 20 116 41 69 144
127 357 202 558 194 1366 269 2250 209z m2870 -3011 c157 -40 504 -152 496
-160 -14 -15 -653 171 -681 199 -11 11 -7 10 185 -39z m-6455 -393 c-17 -32
-102 -133 -118 -139 -10 -4 68 103 106 147 27 30 31 28 12 -8z m-69 -258 c-16
-31 -36 -50 -36 -35 0 14 41 76 46 70 3 -3 -2 -19 -10 -35z m-794 -153 c101
-22 188 -82 188 -130 0 -56 266 -141 384 -122 l41 6 -37 -45 c-64 -79 -71
-128 -18 -128 18 0 43 14 73 40 25 22 48 40 51 40 17 0 -14 -42 -67 -91 -63
-59 -71 -89 -23 -89 30 0 38 -19 25 -63 -29 -106 86 -148 244 -90 99 36 147
40 171 14 18 -19 17 -20 -21 -25 -75 -12 -169 -48 -255 -99 -80 -47 -109 -77
-75 -77 7 0 80 16 162 35 247 58 378 69 345 30 -13 -16 -67 -33 -205 -66 -127
-30 -195 -69 -195 -111 0 -31 24 -31 122 0 114 37 240 65 265 60 32 -7 -64
-94 -119 -108 -59 -15 -110 -58 -137 -115 -34 -72 -25 -103 25 -84 36 13 57
-15 68 -91 36 -235 50 -286 103 -362 32 -47 109 -98 191 -128 72 -26 70 -30
-37 -54 -71 -15 -101 -29 -101 -46 0 -4 53 -11 118 -14 117 -7 222 -29 222
-46 0 -18 -76 -31 -217 -37 -106 -4 -143 -9 -143 -19 0 -14 -1 -14 200 -49
146 -26 233 -48 259 -64 28 -18 -80 -24 -340 -19 -207 4 -259 2 -259 -8 0 -15
-8 -13 285 -54 244 -34 369 -60 433 -91 88 -43 30 -52 -114 -18 -73 17 -132
22 -326 26 -214 5 -238 3 -238 -11 0 -9 2 -16 4 -16 2 0 124 -25 272 -55 261
-52 351 -76 410 -109 36 -19 33 -19 -73 -1 -83 13 -312 36 -520 51 -78 6 -93
4 -93 -8 0 -11 50 -26 200 -59 109 -24 194 -47 187 -50 -7 -4 -50 -9 -97 -12
-127 -9 -190 -25 -220 -57 -29 -32 -65 -51 -137 -74 -61 -20 -116 -66 -107
-90 11 -29 73 -19 179 30 168 77 205 86 325 81 79 -3 125 -11 185 -32 146 -50
254 -120 227 -147 -18 -18 -110 7 -178 49 -95 57 -156 75 -280 80 -90 4 -116
2 -142 -11 -48 -25 -40 -86 11 -86 14 0 17 -4 12 -17 -24 -56 5 -87 78 -84 45
1 67 -5 133 -38 43 -22 104 -60 136 -85 58 -47 115 -112 105 -122 -6 -6 -20 3
-161 100 -82 56 -161 97 -236 121 -79 26 -104 46 -104 86 -1 31 -4 34 -33 37
-31 3 -156 -26 -215 -49 -31 -13 -43 -40 -59 -147 -13 -85 -6 -150 17 -159 38
-14 -3 -159 -44 -151 -65 12 -95 280 -57 518 43 270 -16 431 -215 578 -164
122 -182 137 -206 178 -43 73 -31 138 54 309 61 122 82 193 82 277 0 128 -50
205 -198 306 -252 173 -230 258 96 366 46 16 86 26 89 23 19 -20 -56 -57 -114
-57 -79 0 -127 -57 -86 -102 39 -43 193 4 249 78 31 40 30 73 -5 203 -18 66
-21 89 -12 103 40 65 -21 70 -141 12 -38 -18 -38 -18 -64 7 -14 13 -48 64 -76
114 -62 111 -145 231 -213 310 -59 68 -88 115 -70 115 2 0 28 -5 57 -11z m518
-121 c21 -39 3 -56 -42 -37 -18 7 -61 14 -95 14 -49 0 -60 3 -50 12 21 21 90
42 132 40 31 -2 42 -7 55 -29z m-412 -310 c-4 -13 -123 -77 -143 -77 -14 0 39
39 89 67 46 25 59 27 54 10z m742 -149 c0 -14 -62 -39 -97 -39 -24 0 -25 2
-13 14 25 25 110 44 110 25z m10188 -1 c14 -14 16 -48 3 -48 -11 0 -41 39 -41
52 0 12 25 9 38 -4z m-10928 -7 c-14 -4 -38 -11 -55 -14 l-30 -6 30 14 c17 8
41 14 55 14 l25 -1 -25 -7z m-393 -37 c-3 -3 -12 -4 -19 -1 -8 3 -5 6 6 6 11
1 17 -2 13 -5z m703 -24 c-15 -27 -88 -80 -112 -80 -23 0 -24 32 0 53 27 24
75 47 100 47 20 0 21 -3 12 -20z m-742 -80 c165 -18 180 -29 196 -142 7 -47
39 -105 66 -119 8 -4 28 -10 43 -14 l28 -6 -21 -28 c-28 -41 -26 -75 8 -103
l29 -24 -24 -17 c-27 -21 -31 -68 -8 -87 21 -17 56 -1 85 38 l22 29 65 -36
c37 -20 89 -56 116 -81 114 -102 115 -207 3 -414 -61 -115 -88 -191 -95 -271
l-6 -70 -50 -8 c-27 -4 -66 -10 -85 -13 -23 -4 -47 -19 -73 -45 l-37 -40 -28
19 c-45 33 -74 69 -70 89 4 22 58 28 142 15 72 -12 95 -6 102 24 19 75 -101
302 -145 275 -12 -8 -12 -16 -1 -55 7 -25 10 -52 7 -61 -14 -35 -87 -4 -87 37
0 36 -29 89 -78 141 -64 68 -73 93 -36 107 40 16 67 4 61 -27 -11 -57 69 -85
113 -39 58 63 36 246 -31 246 -19 0 -59 -44 -59 -65 0 -7 -6 -18 -14 -24 -22
-18 -36 10 -47 91 -14 97 -39 149 -88 176 -59 33 -68 77 -25 111 24 19 104 31
104 16 0 -3 -15 -18 -32 -34 -44 -40 -29 -54 58 -55 58 -1 68 2 85 23 26 32
24 59 -12 187 -42 152 -81 214 -124 198 -22 -9 -27 -39 -14 -84 15 -50 7 -60
-29 -33 -27 20 -141 161 -142 176 0 9 12 9 128 -3z m10257 -96 c114 -31 141
-34 360 -40 475 -13 293 -30 -420 -39 -614 -8 -774 -22 -946 -80 -119 -41
-199 -57 -284 -56 -130 0 -242 -33 -665 -194 -96 -36 -224 -80 -283 -96 -117
-32 -195 -67 -298 -135 -74 -49 -159 -135 -159 -160 0 -15 -3 -15 -20 4 -12
12 -25 22 -29 22 -5 0 -182 -86 -393 -191 -671 -335 -1001 -475 -1478 -628
-335 -107 -532 -156 -930 -230 -645 -120 -1108 -230 -1615 -383 -454 -136
-755 -276 -755 -349 0 -28 60 -25 135 7 149 64 202 83 230 83 29 0 29 0 10
-15 -11 -9 -56 -34 -100 -56 -103 -52 -185 -108 -235 -161 -95 -98 3 -116 133
-25 49 35 40 12 -15 -37 -124 -112 -241 -125 -321 -35 -74 81 -70 192 18 535
86 330 87 626 5 800 -66 138 -216 315 -504 590 -207 199 -240 242 -232 300 11
79 151 387 211 460 20 25 27 28 42 19 10 -6 22 -27 27 -47 12 -48 -6 -89 -60
-134 -50 -40 -55 -63 -19 -91 14 -11 25 -22 25 -24 0 -2 -21 -5 -47 -7 -70 -3
-113 -24 -113 -55 0 -36 58 -50 170 -41 l85 6 -51 -30 c-56 -33 -71 -55 -52
-79 10 -11 26 -13 73 -9 33 3 69 9 80 13 12 5 5 -6 -18 -28 -36 -34 -37 -38
-25 -62 19 -35 146 -145 193 -166 23 -10 79 -20 130 -24 70 -5 103 -13 150
-36 70 -34 160 -117 200 -185 24 -42 27 -54 22 -105 -8 -70 3 -84 54 -70 18 6
42 10 51 10 30 0 20 -37 -18 -68 -20 -17 -33 -35 -30 -41 4 -6 37 -8 91 -4 75
5 85 4 91 -12 10 -25 -26 -52 -124 -93 -79 -33 -136 -75 -129 -95 7 -22 81
-18 167 8 128 39 233 60 255 51 18 -7 17 -10 -14 -37 -19 -16 -100 -57 -180
-90 -162 -69 -239 -109 -267 -140 -18 -20 -18 -21 1 -35 26 -19 42 -15 270 66
105 37 237 79 295 94 114 27 280 56 320 55 36 -1 -20 -24 -300 -126 -341 -123
-490 -199 -490 -248 0 -43 61 -30 270 57 240 101 444 164 620 193 122 19 182
19 228 -2 l37 -16 -70 -7 c-121 -13 -321 -75 -710 -220 -261 -98 -360 -142
-397 -177 -25 -24 -27 -31 -22 -78 7 -56 11 -50 -111 -148 -19 -16 -35 -35
-35 -43 0 -38 86 -9 560 184 469 191 885 314 1381 407 414 78 689 152 1183
316 296 98 387 123 218 59 -173 -65 -243 -112 -188 -126 55 -13 303 72 606
209 746 337 957 446 1110 577 110 93 184 135 345 195 55 21 152 63 215 95 292
147 1083 389 1483 454 393 64 848 82 1002 40z m-10531 -165 c35 -41 34 -67 -4
-80 -39 -14 -38 -32 5 -66 l34 -27 -32 -11 c-21 -7 -35 -20 -42 -39 -14 -41
23 -71 103 -80 57 -6 112 -34 112 -57 0 -5 -11 -15 -25 -21 -49 -22 -43 -57
22 -129 22 -24 32 -44 27 -49 -5 -5 -38 -19 -74 -32 -83 -30 -87 -52 -16 -86
57 -27 56 -37 -3 -23 -98 22 -119 67 -101 216 14 107 6 146 -41 200 -40 45
-59 105 -59 185 0 126 38 166 94 99z m-384 -128 c15 -29 12 -56 -8 -81 l-19
-23 -16 24 c-21 29 -21 48 -1 77 19 27 30 28 44 3z m9270 -129 c-255 -127
-450 -244 -732 -436 -114 -77 -245 -165 -290 -194 -81 -52 -238 -136 -238
-128 0 2 21 18 48 35 26 16 62 52 79 78 33 48 73 147 73 179 0 13 3 14 15 4
25 -21 72 -4 194 74 132 84 378 209 626 319 199 88 416 177 430 176 6 0 -87
-48 -205 -107z m-9471 -11 c10 -7 8 -12 -10 -25 -26 -18 -74 -21 -84 -6 -18
29 57 54 94 31z m359 -92 c46 -16 46 -34 2 -71 -22 -17 -40 -36 -40 -41 0 -6
31 -8 83 -4 l82 7 -50 -27 c-77 -40 -79 -48 -28 -96 l36 -35 -22 -36 c-27 -43
-57 -66 -88 -66 -28 0 -39 20 -48 90 -10 74 -24 107 -74 163 -43 51 -50 77
-27 96 35 29 121 39 174 20z m-359 -48 c12 -8 13 -16 2 -51 -12 -40 -8 -80 9
-80 35 0 51 -70 29 -127 l-11 -28 -20 25 c-30 36 -88 161 -95 205 -5 30 -2 41
12 51 22 16 54 18 74 5z m-209 -133 c21 -48 20 -53 -10 -43 -24 7 -43 47 -34
70 10 26 24 17 44 -27z m1037 -322 l14 -48 41 6 c35 6 39 4 34 -10 -3 -8 -6
-17 -6 -20 0 -12 -85 -44 -119 -44 -88 0 -109 112 -30 156 37 21 51 13 66 -40z
m7377 -85 c-45 -55 -64 -71 -84 -71 -15 0 -35 -9 -45 -20 -43 -48 -321 -209
-605 -351 -282 -141 -587 -253 -895 -329 -209 -51 -327 -70 -450 -70 -133 0
-259 -17 -305 -40 -53 -27 -139 -32 -275 -17 -148 18 -189 5 -130 -41 14 -11
25 -23 25 -26 0 -3 -24 -6 -52 -6 -29 0 -98 -7 -153 -16 -55 -8 -124 -18 -154
-21 -52 -6 -53 -5 -42 15 6 11 11 30 11 41 0 18 -6 21 -42 21 -23 0 -39 2 -37
4 2 2 175 36 384 75 448 85 586 115 835 181 485 129 827 253 1228 444 101 49
185 86 188 84 2 -3 -25 -30 -61 -62 -46 -40 -65 -64 -65 -81 0 -13 5 -27 10
-30 20 -13 119 26 196 76 150 98 562 324 572 314 2 -2 -22 -36 -54 -74z m216
-105 c0 -8 -217 -164 -317 -229 -118 -77 -193 -121 -193 -114 0 10 493 347
507 347 2 0 3 -2 3 -4z m-1458 -58 c-24 -11 -46 -17 -49 -14 -7 7 56 35 77 35
8 0 -5 -10 -28 -21z m-5732 -219 c0 -6 -12 -25 -26 -42 -24 -28 -25 -36 -19
-94 4 -42 3 -63 -4 -63 -28 0 -24 125 5 182 14 27 44 39 44 17z m453 -76 c31
-17 31 -18 8 -21 -14 -2 -32 4 -45 17 -25 26 -7 28 37 4z m5972 -19 c-26 -21
-223 -119 -210 -105 10 10 216 121 225 120 3 0 -4 -7 -15 -15z m-4764 -170
c51 -25 109 -71 109 -85 0 -18 -52 -8 -108 20 -63 32 -108 74 -97 91 8 13 32
6 96 -26z m1859 -24 c0 -5 -6 -10 -14 -10 -8 0 -18 5 -21 10 -3 6 3 10 14 10
12 0 21 -4 21 -10z m2770 2 c0 -10 -50 -35 -57 -28 -3 2 8 11 24 20 34 18 33
18 33 8z m-349 -48 c-227 -104 -1063 -335 -1331 -368 -85 -10 -10 12 280 84
332 83 542 141 765 212 177 56 315 96 330 96 6 0 -14 -11 -44 -24z m-2691 -24
c-30 -10 -136 -44 -235 -75 -99 -32 -274 -96 -390 -142 -233 -95 -346 -135
-353 -128 -7 7 201 104 338 158 169 66 375 134 524 172 140 37 207 45 116 15z
m2850 -29 c0 -10 -73 -41 -93 -40 -6 0 11 11 38 25 58 27 55 27 55 15z m-4513
-220 c46 -31 83 -60 83 -64 0 -19 -205 105 -270 163 l-35 32 70 -38 c39 -20
107 -62 152 -93z m4250 108 c-36 -19 -149 -40 -136 -25 14 15 106 45 139 45
l35 0 -38 -20z m-2124 -56 c-7 -2 -19 -2 -25 0 -7 3 -2 5 12 5 14 0 19 -2 13
-5z m-43 -7 c0 -10 -448 -111 -457 -103 -4 5 212 58 367 91 73 16 90 18 90 12z
m-7 -113 c-7 -2 -21 -2 -30 0 -10 3 -4 5 12 5 17 0 24 -2 18 -5z m1567 -7 c0
-5 -119 -32 -180 -41 -34 -4 -41 -3 -28 5 32 20 208 51 208 36z m-2250 -42 c0
-8 -91 -46 -97 -40 -3 3 14 15 38 26 46 20 59 24 59 14z m1343 -51 c-7 -2 -21
-2 -30 0 -10 3 -4 5 12 5 17 0 24 -2 18 -5z m520 0 c-7 -2 -21 -2 -30 0 -10 3
-4 5 12 5 17 0 24 -2 18 -5z m-2130 -50 c-7 -2 -19 -2 -25 0 -7 3 -2 5 12 5
14 0 19 -2 13 -5z m1136 3 c-3 -3 -109 -45 -237 -95 -128 -50 -266 -106 -307
-125 -137 -64 -333 -212 -515 -391 -101 -98 -127 -134 -117 -159 9 -24 34 -19
83 14 24 16 44 27 44 25 0 -2 -12 -21 -26 -42 -68 -99 -98 -189 -70 -212 25
-21 50 -8 76 40 40 74 106 153 193 232 173 156 376 301 527 377 225 113 653
248 983 311 234 44 117 3 -303 -106 -263 -69 -361 -102 -510 -172 -255 -120
-433 -253 -833 -621 -114 -106 -211 -192 -215 -192 -16 0 -97 116 -118 169
-35 86 -47 204 -34 317 21 173 71 277 154 321 27 14 28 14 21 -3 -30 -74 27
-66 221 29 85 42 154 74 154 72 0 -3 -53 -40 -117 -84 -141 -94 -213 -156
-213 -182 0 -42 89 -11 270 92 173 98 413 218 550 275 165 68 360 131 339 110z"/>
<path d="M5458 8043 c-56 -64 -86 -244 -46 -270 14 -8 28 18 56 102 31 92 41
185 20 185 -8 0 -22 -8 -30 -17z"/>
<path d="M5590 8010 c-45 -88 -67 -271 -34 -284 18 -7 35 28 64 140 29 114 29
184 0 184 -5 0 -19 -18 -30 -40z"/>
<path d="M4700 7971 c-12 -24 -13 -161 -1 -180 17 -27 41 -4 43 41 5 128 -14
191 -42 139z"/>
<path d="M4850 7980 c-22 -14 -27 -158 -6 -185 27 -36 41 -5 41 90 0 87 -9
111 -35 95z"/>
<path d="M5742 7935 c-28 -62 -4 -146 33 -115 15 13 21 93 9 124 -9 24 -29 19
-42 -9z"/>
<path d="M5216 7848 c-13 -48 -6 -214 9 -234 13 -16 16 -17 25 -4 10 16 14
218 4 244 -9 23 -31 19 -38 -6z"/>
<path d="M4320 7841 c-15 -29 -12 -124 4 -147 22 -28 38 -6 44 58 6 82 -22
136 -48 89z"/>
<path d="M4982 7835 c-27 -59 -1 -143 34 -114 21 18 15 133 -7 137 -9 2 -20
-8 -27 -23z"/>
<path d="M8562 7543 c-70 -85 -112 -190 -82 -208 17 -10 63 49 108 140 40 79
47 115 23 115 -5 0 -27 -21 -49 -47z"/>
<path d="M8859 7467 c-39 -26 -59 -60 -59 -100 0 -40 28 -47 55 -13 49 61 74
136 45 136 -4 0 -22 -10 -41 -23z"/>
<path d="M8966 7361 c-25 -27 -66 -163 -66 -216 0 -37 3 -45 19 -45 41 0 111
235 79 266 -12 13 -17 12 -32 -5z"/>
<path d="M9302 7295 c-75 -68 -104 -145 -53 -145 32 0 151 156 136 180 -12 19
-33 10 -83 -35z"/>
<path d="M9377 7158 c-56 -74 -76 -208 -31 -208 25 0 84 145 84 207 0 43 -21
43 -53 1z"/>
<path d="M9528 7123 c-57 -65 -87 -223 -42 -223 28 0 101 189 87 226 -7 19
-27 18 -45 -3z"/>
<path d="M7204 6955 c-7 -19 -14 -43 -14 -54 0 -25 34 -66 48 -57 29 18 26
146 -4 146 -8 0 -22 -16 -30 -35z"/>
<path d="M9637 6964 c-43 -43 -48 -96 -12 -111 40 -15 99 52 93 105 -4 39 -46
42 -81 6z"/>
<path d="M11194 6322 c-35 -23 -40 -84 -7 -96 19 -8 71 21 90 50 12 19 12 24
-2 38 -17 17 -62 21 -81 8z"/>
<path d="M11812 5538 c-65 -31 -162 -163 -162 -218 0 -32 21 -24 95 37 121 99
165 147 165 176 0 23 -4 27 -27 27 -16 0 -48 -10 -71 -22z"/>
<path d="M11862 5359 c-22 -8 -36 -44 -30 -76 7 -39 84 -19 109 29 19 35 -31
65 -79 47z"/>
<path d="M2831 5348 c-57 -21 38 -81 154 -98 171 -25 869 -32 2210 -21 2120
18 2157 15 3255 -254 212 -52 462 -110 555 -129 264 -54 499 -128 1285 -406
261 -92 580 -202 709 -245 162 -54 228 -81 215 -85 -24 -9 -204 -22 -184 -13
8 3 26 10 39 15 36 13 9 38 -43 38 -84 0 -1108 226 -1896 419 -314 76 -379 90
-555 120 -894 151 -2606 243 -3750 201 -366 -13 -698 -29 -767 -36 -61 -6 -78
-25 -35 -39 48 -15 979 -18 1297 -4 411 18 664 16 1110 -10 1200 -70 1693
-124 2415 -267 261 -51 378 -77 1085 -238 508 -115 750 -166 793 -166 13 0 32
-7 43 -16 17 -14 13 -15 -61 -9 -44 3 -186 24 -315 45 -401 68 -1274 189
-1910 265 -533 64 -1100 137 -1236 159 -82 13 -174 27 -205 31 -60 7 -109 -6
-109 -29 0 -47 368 -108 1400 -231 904 -108 1665 -212 2115 -290 412 -71 1041
-119 1040 -80 -1 6 -24 18 -53 29 -29 10 -52 22 -52 26 0 17 91 22 280 19 207
-4 256 6 133 28 -324 58 -548 126 -1403 426 -864 302 -1080 365 -1835 536
-242 55 -557 127 -700 160 -295 68 -401 85 -653 106 -374 30 -871 38 -1827 29
-1354 -13 -2251 -10 -2401 8 -67 8 -132 11 -143 6z"/>
<path d="M3865 5140 c-600 -9 -735 -17 -735 -44 0 -8 15 -17 33 -22 18 -5 857
-9 1882 -9 1362 0 1878 -4 1955 -12 201 -23 316 -14 308 25 -6 29 -67 40 -270
51 -248 13 -2533 21 -3173 11z"/>
<path d="M7364 5086 c-15 -12 -17 -18 -8 -33 17 -27 75 -42 203 -53 200 -16
499 -79 1249 -261 766 -186 782 -189 782 -155 0 25 -122 66 -495 166 -594 160
-1208 297 -1501 335 -144 19 -205 19 -230 1z"/>
<path d="M11260 4782 c-60 -19 -67 -102 -9 -102 28 0 80 50 77 73 -3 21 -41
38 -68 29z"/>
<path d="M5122 4720 c-51 -11 -62 -17 -62 -35 0 -34 94 -43 575 -55 458 -12
1008 -37 1198 -55 46 -5 57 -3 57 9 0 17 0 17 -236 55 -189 31 -371 53 -584
72 -162 14 -892 21 -948 9z"/>
<path d="M3215 4669 c-234 -25 -369 -62 -325 -89 16 -11 38 -12 150 -10 136 2
356 46 380 76 29 34 -31 41 -205 23z"/>
<path d="M9653 4580 c-13 -5 -23 -18 -23 -29 0 -21 53 -46 120 -57 32 -5 41
-3 47 11 8 22 -47 75 -76 75 -11 0 -25 2 -33 4 -7 3 -23 1 -35 -4z"/>
<path d="M3660 4563 c-206 -14 -595 -54 -725 -74 -68 -11 -95 -22 -95 -40 0
-14 206 -11 452 6 354 25 479 46 503 84 8 14 -29 31 -62 29 -15 -1 -48 -3 -73
-5z"/>
<path d="M5370 4421 c-63 -5 -127 -12 -142 -16 -32 -8 -37 -29 -10 -40 9 -4
332 -13 717 -21 878 -16 1025 -25 1395 -84 102 -16 401 -61 665 -100 264 -39
638 -98 830 -130 488 -82 744 -106 794 -75 53 32 -129 70 -919 189 -1150 174
-1483 221 -1695 241 -336 30 -1379 53 -1635 36z"/>
<path d="M3535 4394 c-77 -13 -302 -42 -500 -64 -399 -46 -438 -53 -433 -78 3
-15 22 -17 183 -16 304 1 821 66 973 122 34 13 47 23 47 37 0 18 -8 20 -65 22
-36 1 -128 -10 -205 -23z"/>
<path d="M2960 4184 c-61 -16 -111 -43 -117 -61 -3 -7 7 -18 21 -24 48 -22
249 30 263 69 13 34 -70 42 -167 16z"/>
<path d="M6120 4164 c-711 -30 -1200 -87 -1200 -139 0 -33 44 -32 625 20 244
21 595 35 934 36 390 1 777 12 787 22 14 13 -29 34 -96 47 -61 12 -853 22
-1050 14z"/>
<path d="M6315 3900 c-202 -8 -317 -19 -336 -31 -31 -19 14 -31 147 -40 166
-11 2294 -12 2344 -1 l35 8 -42 17 c-91 36 -636 57 -1423 55 -305 -1 -631 -4
-725 -8z"/>
<path d="M3875 3825 c-289 -87 -352 -110 -365 -136 -10 -17 -7 -19 30 -19 54
0 149 22 355 81 236 67 243 70 270 95 32 30 23 54 -19 53 -17 -1 -139 -34
-271 -74z"/>
<path d="M8813 3813 c-21 -8 -15 -30 14 -51 l27 -20 -41 -11 c-66 -18 -222
-38 -461 -61 -223 -21 -252 -25 -252 -40 0 -16 57 -21 273 -21 307 0 517 24
582 67 47 31 24 103 -41 130 -33 14 -77 17 -101 7z"/>
<path d="M4447 3758 c-85 -23 -57 -78 40 -78 85 0 223 37 223 59 0 28 -179 41
-263 19z"/>
<path d="M4200 3699 c-289 -64 -683 -186 -757 -235 -33 -21 -29 -44 6 -44 39
0 183 38 455 121 247 75 354 103 428 114 57 8 66 18 31 34 -38 17 -110 22
-163 10z"/>
<path d="M7610 3609 c-97 -7 -349 -60 -381 -80 -37 -23 16 -25 181 -8 96 10
256 23 355 29 177 11 232 21 221 39 -5 8 -38 12 -226 24 -25 2 -92 0 -150 -4z"/>
<path d="M4210 3513 c-60 -11 -306 -75 -429 -113 -169 -52 -261 -93 -261 -116
0 -15 8 -16 68 -11 122 12 550 131 689 192 69 31 72 56 6 54 -27 -1 -59 -4
-73 -6z"/>
<path d="M9070 3403 c-334 -34 -1172 -212 -1219 -258 -13 -12 -12 -15 4 -21
33 -13 183 11 845 137 541 102 562 107 539 135 -11 14 -78 17 -169 7z"/>
<path d="M7595 3376 c-5 -2 -22 -7 -37 -10 -38 -8 -35 -32 3 -40 49 -9 205 -7
233 4 30 11 33 25 9 35 -20 8 -192 17 -208 11z"/>
<path d="M7185 3323 c-57 -7 -230 -45 -247 -54 -27 -14 -22 -38 10 -46 38 -9
242 13 337 37 138 35 140 71 5 68 -41 0 -88 -3 -105 -5z"/>
<path d="M3614 3201 c-27 -10 -65 -26 -83 -35 -51 -27 -26 -46 61 -46 77 0
131 18 148 50 28 51 -28 65 -126 31z"/>
<path d="M4965 3159 c-242 -36 -375 -73 -375 -103 0 -22 43 -21 277 9 274 36
407 64 416 89 3 8 3 17 0 20 -12 12 -201 3 -318 -15z"/>
<path d="M7525 3114 c-115 -21 -217 -53 -212 -67 16 -48 378 -14 439 40 48 43
-65 56 -227 27z"/>
<path d="M5510 3014 c-19 -2 -109 -11 -200 -19 -358 -34 -803 -95 -842 -116
-11 -6 -18 -18 -16 -27 7 -35 156 -26 683 39 398 49 560 81 560 109 0 12 -17
15 -75 16 -41 1 -91 0 -110 -2z"/>
<path d="M4650 2780 c-123 -22 -263 -64 -280 -85 -19 -23 -8 -50 23 -53 15 -2
67 6 115 17 48 11 137 30 197 41 126 24 171 36 203 57 19 11 21 17 11 29 -16
20 -137 17 -269 -6z"/>
<path d="M6934 2779 c-216 -45 -442 -123 -452 -156 -6 -22 64 -15 218 21 260
61 395 113 376 144 -10 16 -33 14 -142 -9z"/>
<path d="M1943 4016 c-37 -18 -53 -31 -53 -44 0 -24 18 -32 76 -32 35 0 51 6
70 25 24 24 25 28 11 48 -20 31 -44 31 -104 3z"/>
<path d="M2065 3418 c-59 -32 -99 -98 -60 -98 22 0 86 28 107 47 22 20 23 49
2 57 -21 8 -25 7 -49 -6z"/>
<path d="M2225 2861 c-51 -31 -125 -117 -125 -146 0 -35 21 -40 67 -16 73 37
135 124 119 166 -7 20 -25 19 -61 -4z"/>
<path d="M2257 2709 c-39 -32 -77 -95 -77 -127 0 -10 6 -24 13 -31 19 -21 -31
7 -73 40 -49 39 -81 45 -104 21 -25 -29 -12 -88 30 -129 34 -35 48 -39 88 -23
22 8 27 6 38 -18 11 -23 20 -27 53 -27 33 0 41 -4 43 -21 4 -29 37 -58 57 -50
26 10 48 75 41 125 -9 65 -21 74 -83 68 l-52 -5 38 36 c45 44 80 126 64 151
-16 26 -35 24 -76 -10z"/>
<path d="M2500 1789 c-19 -12 -38 -27 -42 -33 -13 -21 19 -38 72 -39 46 -1 56
3 76 27 51 58 -29 92 -106 45z"/>
<path d="M7658 2053 c-15 -2 -75 -29 -133 -59 -59 -30 -161 -75 -228 -99 -135
-50 -187 -77 -187 -99 0 -23 24 -26 88 -11 145 34 485 178 525 223 17 18 17
21 2 36 -9 9 -22 15 -28 15 -7 -1 -24 -4 -39 -6z"/>
</g>
</svg>
